<?xml version="1.0" standalone="no"?>
<!DOCTYPE svg PUBLIC "-//W3C//DTD SVG 20010904//EN"
 "http://www.w3.org/TR/2001/REC-SVG-20010904/DTD/svg10.dtd">
<svg version="1.0" xmlns="http://www.w3.org/2000/svg"
 width="1600.000000pt" height="1600.000000pt" viewBox="0 0 1600.000000 1600.000000"
 preserveAspectRatio="xMidYMid meet">

<g transform="translate(0.000000,1600.000000) scale(0.100000,-0.100000)"
fill="#000000" stroke="none">
<path d="M7432 9624 c-23 -16 -29 -53 -12 -70 7 -7 7 -19 2 -35 -8 -19 -6
-3089 2 -3095 0 -1 16 -5 34 -9 l32 -7 1 1349 c1 741 3 1435 5 1541 2 111 -1
204 -7 219 -6 17 -6 30 2 39 15 19 7 55 -16 70 -18 12 -24 11 -43 -2z"/>
<path d="M7540 9127 c0 -162 3 -322 7 -357 l6 -63 86 5 c107 6 236 55 416 157
300 171 423 221 546 221 38 0 69 4 69 9 0 5 -35 27 -77 48 -118 59 -185 76
-373 92 -244 22 -326 32 -402 51 -72 18 -174 64 -245 111 l-33 21 0 -295z"/>
<path d="M7568 6693 l-28 -4 0 -98 c0 -54 3 -120 7 -146 l6 -48 111 6 c127 7
187 24 233 68 41 38 50 72 31 113 -34 70 -229 129 -360 109z"/>
<path d="M7327 6600 c-15 -17 -27 -42 -27 -55 0 -22 43 -85 58 -85 10 0 13
124 4 150 -8 22 -9 22 -35 -10z"/>
</g>
</svg>
